<?xml version="1.0" encoding="utf-8"?>
<!-- Generator: Adobe Illustrator 17.0.0, SVG Export Plug-In . SVG Version: 6.00 Build 0)  -->
<!DOCTYPE svg PUBLIC "-//W3C//DTD SVG 1.1//EN" "http://www.w3.org/Graphics/SVG/1.1/DTD/svg11.dtd">
<svg version="1.1" id="Layer_1" xmlns="http://www.w3.org/2000/svg" xmlns:xlink="http://www.w3.org/1999/xlink" x="0px" y="0px"
	 width="124.163px" height="57.194px" viewBox="0 0 124.163 57.194" enable-background="new 0 0 124.163 57.194"
	 xml:space="preserve">
<g>
	<path fill="#FFFFFF" d="M11.549,2.13v-0.8h10.779v0.8h-0.504c-1.159,0-1.918,0.095-2.278,0.287c-0.359,0.191-0.6,0.548-0.722,1.069
		c-0.122,0.522-0.183,1.762-0.183,3.721v11.562c0,1.854,0.043,3.068,0.13,3.642s0.319,1,0.695,1.278
		c0.377,0.278,1.098,0.417,2.165,0.417h0.695v0.8H11.549v-0.8h0.695c1.008,0,1.707-0.128,2.095-0.382
		c0.388-0.255,0.635-0.652,0.739-1.191s0.156-1.793,0.156-3.764V7.207c0-1.878-0.052-3.089-0.156-3.634s-0.336-0.921-0.695-1.13
		c-0.359-0.209-1.136-0.313-2.33-0.313C12.053,2.13,11.549,2.13,11.549,2.13z"/>
	<path fill="#FFFFFF" d="M37.106,25.462h-1.078L27.892,6.72c-0.151-0.336-0.388-0.916-0.713-1.739
		c-0.452-1.113-0.927-1.86-1.426-2.243c-0.498-0.382-1.304-0.585-2.417-0.609v-0.8H33.49v0.8c-1.264,0-2.112,0.093-2.547,0.278
		c-0.435,0.185-0.652,0.539-0.652,1.061c0,0.336,0.272,1.124,0.817,2.364l6.781,15.647l5.441-13.02
		c0.916-2.179,1.374-3.599,1.374-4.26c0-1.333-0.945-2.023-2.834-2.069v-0.8h7.198v0.8c-0.73,0.023-1.373,0.284-1.929,0.782
		S46.1,4.141,45.694,5.103l-1.582,3.703L37.106,25.462z"/>
	<path fill="#FFFFFF" d="M58.288,16.213h-8.954l-0.609,1.495c-0.904,2.167-1.356,3.581-1.356,4.242c0,0.707,0.24,1.243,0.721,1.608
		s1.098,0.548,1.852,0.548v0.8h-7.006v-0.8c1.043-0.162,1.82-0.53,2.33-1.104s1.124-1.782,1.843-3.625
		c0.058-0.174,0.336-0.846,0.835-2.017L54.793,1h0.678l7.876,18.725l1.078,2.469c0.243,0.556,0.571,0.994,0.982,1.312
		c0.411,0.319,1.029,0.519,1.852,0.6v0.8h-9.267v-0.8c1.136,0,1.904-0.084,2.303-0.252c0.4-0.168,0.6-0.501,0.6-1
		c0-0.255-0.267-1.014-0.8-2.278L58.288,16.213z M57.992,15.43L53.82,5.381L49.664,15.43H57.992z"/>
	<path fill="#FFFFFF" d="M89.241,25.444L72.568,3.347v16.36c0,1.356,0.067,2.249,0.2,2.677c0.133,0.429,0.513,0.823,1.139,1.182
		s1.565,0.539,2.817,0.539v0.8h-8.797v-0.8c1.124-0.081,1.982-0.287,2.573-0.617c0.591-0.33,0.941-0.687,1.052-1.069
		c0.11-0.382,0.165-1.287,0.165-2.712v-12.5c0-1.808-0.084-3.019-0.252-3.634c-0.168-0.614-0.435-1.008-0.8-1.182
		C70.3,2.217,69.485,2.13,68.222,2.13v-0.8h6.954l13.961,18.446v-14.1c0-1.043-0.107-1.773-0.321-2.191
		c-0.215-0.417-0.652-0.748-1.313-0.991s-1.455-0.365-2.382-0.365v-0.8h8.554v0.8c-0.997,0.081-1.782,0.272-2.356,0.574
		c-0.574,0.301-0.939,0.664-1.096,1.086c-0.156,0.423-0.235,1.139-0.235,2.147v19.507h-0.747V25.444z"/>
	<path fill="#FFFFFF" d="M106.264,16.213H97.31l-0.609,1.495c-0.904,2.167-1.356,3.581-1.356,4.242c0,0.707,0.24,1.243,0.721,1.608
		s1.098,0.548,1.852,0.548v0.8h-7.006v-0.8c1.043-0.162,1.82-0.53,2.33-1.104s1.124-1.782,1.843-3.625
		c0.058-0.174,0.336-0.846,0.835-2.017L102.769,1h0.678l7.876,18.725l1.078,2.469c0.243,0.556,0.571,0.994,0.982,1.312
		c0.411,0.319,1.029,0.519,1.852,0.6v0.8h-9.267v-0.8c1.136,0,1.904-0.084,2.303-0.252c0.4-0.168,0.6-0.501,0.6-1
		c0-0.255-0.267-1.014-0.8-2.278L106.264,16.213z M105.968,15.43l-4.173-10.049L97.64,15.43H105.968z"/>
	<path fill="#FFFFFF" d="M27.983,54.451h-6.346c-1.124-0.788-2.846-2.851-5.164-6.189c-0.742-1.066-1.513-2.089-2.312-3.069
		c-0.8-0.979-1.35-1.576-1.652-1.791c-0.301-0.214-0.771-0.321-1.408-0.321h-0.939v5.233c0,1.855,0.043,3.068,0.13,3.643
		c0.087,0.573,0.319,1,0.695,1.278c0.377,0.278,1.098,0.417,2.165,0.417h1.13v0.8H3v-0.8h0.765c1.008,0,1.707-0.127,2.095-0.382
		c0.388-0.255,0.635-0.652,0.739-1.191c0.104-0.539,0.156-1.793,0.156-3.764V36.752c0-1.878-0.052-3.089-0.156-3.634
		s-0.336-0.921-0.695-1.13c-0.359-0.209-1.136-0.313-2.33-0.313h-0.4v-0.8l3.373-0.174c2.249-0.104,4.034-0.156,5.355-0.156
		c2.249,0,4.077,0.209,5.485,0.626c1.408,0.417,2.547,1.101,3.416,2.052s1.304,2.086,1.304,3.408c0,1.541-0.568,2.857-1.704,3.947
		c-1.136,1.089-2.805,1.767-5.007,2.034c0.985,0.475,2.573,2.191,4.764,5.146c1.785,2.399,3.187,3.97,4.207,4.712
		s2.225,1.136,3.616,1.182V54.451z M10.163,42.281c0.869-0.023,1.767-0.058,2.695-0.104c0.927-0.046,1.733-0.174,2.417-0.382
		c0.684-0.209,1.237-0.513,1.66-0.913c0.423-0.4,0.756-0.924,1-1.573C18.178,38.66,18.3,37.86,18.3,36.91
		c0-1.658-0.414-2.984-1.243-3.981c-0.829-0.997-2.634-1.495-5.416-1.495c-0.429,0-0.921,0.023-1.478,0.07
		C10.163,31.504,10.163,42.281,10.163,42.281z"/>
	<path fill="#FFFFFF" d="M44.028,45.758h-8.954l-0.608,1.495c-0.904,2.168-1.356,3.581-1.356,4.242c0,0.707,0.24,1.243,0.721,1.608
		s1.098,0.547,1.852,0.547v0.8h-7.007v-0.8c1.043-0.162,1.82-0.53,2.33-1.104s1.124-1.782,1.843-3.625
		c0.058-0.174,0.336-0.846,0.835-2.017l6.85-16.36h0.678l7.875,18.725l1.078,2.469c0.243,0.556,0.571,0.994,0.982,1.312
		c0.411,0.319,1.028,0.519,1.852,0.6v0.8h-9.267v-0.8c1.136,0,1.904-0.084,2.304-0.252s0.6-0.501,0.6-1
		c0-0.255-0.267-1.014-0.8-2.278L44.028,45.758z M43.732,44.976l-4.173-10.049l-4.155,10.049H43.732z"/>
	<path fill="#FFFFFF" d="M53.607,31.067l3.877-0.191c3.234-0.162,5.413-0.243,6.537-0.243c3.5,0,6.23,0.533,8.189,1.599
		s3.417,2.512,4.372,4.338c0.957,1.826,1.435,3.932,1.435,6.32c0,1.727-0.261,3.306-0.782,4.737
		c-0.522,1.432-1.237,2.62-2.147,3.564c-0.91,0.945-1.964,1.663-3.164,2.156c-1.199,0.493-2.338,0.8-3.416,0.921
		c-1.078,0.122-2.596,0.183-4.555,0.183h-10.45v-0.8h0.974c1.008,0,1.706-0.127,2.095-0.382c0.388-0.255,0.637-0.652,0.747-1.191
		s0.165-1.793,0.165-3.764v-11.37c0-1.878-0.055-3.092-0.165-3.643c-0.11-0.55-0.342-0.927-0.695-1.13
		c-0.354-0.203-1.127-0.304-2.321-0.304h-0.695v-0.8H53.607z M60.874,31.554v15.752c0,2.33,0.044,3.831,0.13,4.503
		c0.087,0.673,0.348,1.145,0.783,1.417c0.434,0.273,1.353,0.409,2.755,0.409c2.052,0,3.738-0.281,5.059-0.843
		s2.425-1.669,3.312-3.321c0.886-1.651,1.33-3.758,1.33-6.32c0-1.993-0.258-3.773-0.773-5.337c-0.516-1.565-1.255-2.837-2.217-3.816
		c-0.962-0.979-2.029-1.646-3.199-1.999c-1.171-0.353-2.672-0.53-4.503-0.53C62.67,31.467,61.778,31.496,60.874,31.554z"/>
	<path fill="#FFFFFF" d="M79.424,42.507c0-3.64,1.217-6.56,3.651-8.762s5.471-3.303,9.11-3.303c3.674,0,6.743,1.089,9.206,3.269
		c2.462,2.179,3.694,5.152,3.694,8.919c0,3.651-1.18,6.607-3.538,8.867c-2.359,2.26-5.462,3.39-9.31,3.39
		c-3.744,0-6.815-1.13-9.214-3.39C80.624,49.235,79.424,46.239,79.424,42.507z M83.406,42.629c0,3.79,0.756,6.636,2.269,8.536
		c1.512,1.901,3.781,2.851,6.806,2.851c2.654,0,4.752-0.95,6.294-2.851c1.541-1.901,2.312-4.734,2.312-8.502
		c0-3.662-0.759-6.47-2.278-8.424c-1.518-1.953-3.721-2.929-6.607-2.929c-2.84,0-5.016,0.953-6.528,2.86
		C84.162,36.077,83.406,38.897,83.406,42.629z"/>
	<path fill="#FFFFFF" d="M106.311,54.208v-7.58h0.869c0.985,4.938,3.321,7.406,7.006,7.406c1.657,0,2.941-0.472,3.851-1.417
		c0.91-0.945,1.365-2.002,1.365-3.173c0-1.182-0.4-2.173-1.2-2.973c-0.8-0.788-2.26-1.634-4.381-2.538
		c-1.89-0.811-3.315-1.521-4.277-2.13s-1.713-1.399-2.251-2.373c-0.539-0.974-0.809-2.011-0.809-3.112
		c0-1.681,0.582-3.08,1.747-4.199c1.164-1.118,2.639-1.678,4.425-1.678c0.997,0,1.935,0.162,2.817,0.487
		c0.881,0.324,1.785,0.997,2.712,2.017c0.533-0.637,0.835-1.327,0.904-2.069h0.765v6.172h-0.765c-0.441-1.797-1.22-3.21-2.338-4.242
		c-1.119-1.032-2.414-1.547-3.886-1.547c-1.403,0-2.431,0.38-3.086,1.139c-0.655,0.759-0.982,1.591-0.982,2.495
		c0,1.089,0.411,2.011,1.234,2.764c0.811,0.765,2.278,1.623,4.399,2.573c2.028,0.904,3.503,1.631,4.425,2.182
		c0.922,0.551,1.661,1.313,2.217,2.286c0.556,0.974,0.835,2.098,0.835,3.373c0,2.017-0.673,3.657-2.017,4.92
		c-1.345,1.264-3.141,1.895-5.39,1.895c-2.585,0-4.741-0.991-6.468-2.973c-0.382,0.545-0.667,1.31-0.852,2.295H106.311z"/>
</g>
</svg>
